<svg width="626" height="189" viewBox="0 0 626 189" fill="none" xmlns="http://www.w3.org/2000/svg">
<path d="M129.802 180.522L119.074 168.479C118.792 168.142 118.604 167.897 118.51 167.744H118.447V180.522H116V154.782H118.447V166.917H118.51C118.51 166.917 118.698 166.671 118.792 166.549C118.886 166.426 118.98 166.304 119.106 166.181L129.363 154.813H132.469L121.05 167.223L133.222 180.553H129.802V180.522Z" fill="white"/>
<path d="M144.728 170.897V180.549H142.281V170.958L134 154.809H136.76L142.783 166.852C142.783 166.852 142.94 167.22 143.066 167.495C143.191 167.771 143.348 168.139 143.505 168.598H143.568C143.63 168.384 143.756 168.139 143.881 167.832C144.007 167.526 144.195 167.22 144.383 166.852L150.688 154.809H153.292L144.697 170.927L144.728 170.897Z" fill="white"/>
<path d="M167.297 180.973C165.383 180.973 163.689 180.636 162.183 179.962C160.678 179.288 159.36 178.369 158.325 177.173C157.29 175.978 156.443 174.63 155.878 173.037C155.314 171.443 155.031 169.758 155.031 167.919C155.031 165.897 155.314 164.058 155.878 162.403C156.443 160.749 157.29 159.309 158.356 158.113C159.423 156.918 160.772 155.999 162.372 155.325C163.971 154.651 165.759 154.314 167.767 154.314C169.618 154.314 171.312 154.651 172.786 155.294C174.261 155.938 175.547 156.857 176.582 157.991C177.617 159.125 178.433 160.504 178.966 162.097C179.499 163.691 179.813 165.407 179.813 167.245C179.813 169.206 179.531 171.014 178.997 172.669C178.464 174.324 177.648 175.795 176.582 177.02C175.515 178.246 174.229 179.196 172.661 179.901C171.092 180.605 169.336 180.943 167.297 180.943V180.973ZM167.485 156.52C165.885 156.52 164.473 156.826 163.25 157.409C162.027 157.991 160.991 158.818 160.144 159.829C159.297 160.841 158.67 162.036 158.231 163.384C157.792 164.732 157.572 166.203 157.572 167.735C157.572 169.206 157.76 170.585 158.137 171.933C158.513 173.282 159.141 174.446 159.925 175.457C160.709 176.469 161.744 177.296 162.968 177.909C164.191 178.522 165.634 178.828 167.265 178.828C168.896 178.828 170.339 178.552 171.594 178.001C172.849 177.449 173.884 176.683 174.7 175.672C175.515 174.661 176.174 173.496 176.582 172.148C176.99 170.8 177.209 169.298 177.209 167.674C177.209 166.173 177.021 164.732 176.645 163.384C176.268 162.036 175.703 160.841 174.888 159.829C174.072 158.818 173.1 158.022 171.876 157.409C170.653 156.796 169.179 156.52 167.453 156.52H167.485Z" fill="white"/>
<path d="M185.082 180.522V154.782H192.297C193.395 154.782 194.367 154.935 195.246 155.211C196.124 155.487 196.877 155.916 197.473 156.437C198.069 156.958 198.571 157.571 198.885 158.306C199.198 159.041 199.386 159.838 199.386 160.727C199.386 161.462 199.292 162.167 199.073 162.81C198.853 163.454 198.571 164.036 198.163 164.588C197.755 165.139 197.285 165.568 196.72 165.967C196.155 166.365 195.497 166.671 194.775 166.886V166.947C195.654 167.039 196.469 167.254 197.191 167.591C197.912 167.928 198.54 168.357 199.041 168.908C199.543 169.46 199.951 170.073 200.233 170.808C200.516 171.544 200.641 172.34 200.641 173.198C200.641 174.302 200.453 175.282 200.045 176.201C199.637 177.121 199.073 177.887 198.351 178.53C197.63 179.174 196.751 179.695 195.748 180.063C194.744 180.43 193.646 180.614 192.423 180.614H185.051L185.082 180.522ZM187.529 156.958V166.089H190.948C191.858 166.089 192.642 165.967 193.364 165.752C194.085 165.538 194.712 165.201 195.214 164.772C195.716 164.343 196.124 163.822 196.406 163.209C196.689 162.596 196.814 161.922 196.814 161.156C196.814 158.367 195.026 156.958 191.481 156.958H187.498H187.529ZM187.529 168.265V178.347H192.077C194.022 178.347 195.528 177.887 196.563 176.998C197.598 176.11 198.132 174.853 198.132 173.198C198.132 169.889 195.842 168.234 191.231 168.234H187.529V168.265Z" fill="white"/>
<path d="M216.812 180.973C214.899 180.973 213.205 180.636 211.699 179.962C210.193 179.288 208.876 178.369 207.841 177.173C206.805 175.978 205.958 174.63 205.394 173.037C204.829 171.443 204.547 169.758 204.547 167.919C204.547 165.897 204.829 164.058 205.394 162.403C205.958 160.749 206.805 159.309 207.872 158.113C208.939 156.918 210.287 155.999 211.887 155.325C213.487 154.651 215.275 154.314 217.283 154.314C219.134 154.314 220.827 154.651 222.302 155.294C223.776 155.938 225.062 156.857 226.097 157.991C227.133 159.125 227.948 160.504 228.482 162.097C229.015 163.691 229.328 165.407 229.328 167.245C229.328 169.206 229.046 171.014 228.513 172.669C227.98 174.324 227.164 175.795 226.097 177.02C225.031 178.246 223.745 179.196 222.176 179.901C220.608 180.605 218.851 180.943 216.812 180.943V180.973ZM217 156.52C215.401 156.52 213.989 156.826 212.766 157.409C211.542 157.991 210.507 158.818 209.66 159.829C208.813 160.841 208.186 162.036 207.747 163.384C207.307 164.732 207.088 166.203 207.088 167.735C207.088 169.206 207.276 170.585 207.652 171.933C208.029 173.282 208.656 174.446 209.44 175.457C210.225 176.469 211.26 177.296 212.483 177.909C213.707 178.522 215.15 178.828 216.781 178.828C218.412 178.828 219.855 178.552 221.11 178.001C222.365 177.449 223.4 176.683 224.215 175.672C225.031 174.661 225.69 173.496 226.097 172.148C226.505 170.8 226.725 169.298 226.725 167.674C226.725 166.173 226.537 164.732 226.16 163.384C225.784 162.036 225.219 160.841 224.404 159.829C223.588 158.818 222.615 158.022 221.392 157.409C220.169 156.796 218.694 156.52 216.969 156.52H217Z" fill="white"/>
<path d="M255.656 180.973C253.742 180.973 252.048 180.636 250.543 179.962C249.037 179.288 247.72 178.369 246.684 177.173C245.649 175.978 244.802 174.63 244.238 173.037C243.673 171.443 243.391 169.758 243.391 167.919C243.391 165.897 243.673 164.058 244.238 162.403C244.802 160.749 245.649 159.309 246.716 158.113C247.782 156.918 249.131 155.999 250.731 155.325C252.331 154.651 254.119 154.314 256.126 154.314C257.977 154.314 259.671 154.651 261.146 155.294C262.62 155.938 263.906 156.857 264.941 157.991C265.976 159.125 266.792 160.504 267.325 162.097C267.859 163.691 268.172 165.407 268.172 167.245C268.172 169.206 267.89 171.014 267.357 172.669C266.823 174.324 266.008 175.795 264.941 177.02C263.875 178.246 262.589 179.196 261.02 179.901C259.452 180.605 257.695 180.943 255.656 180.943V180.973ZM255.844 156.52C254.244 156.52 252.833 156.826 251.609 157.409C250.386 157.991 249.351 158.818 248.504 159.829C247.657 160.841 247.029 162.036 246.59 163.384C246.151 164.732 245.932 166.203 245.932 167.735C245.932 169.206 246.12 170.585 246.496 171.933C246.873 173.282 247.5 174.446 248.284 175.457C249.068 176.469 250.104 177.296 251.327 177.909C252.55 178.522 253.993 178.828 255.625 178.828C257.256 178.828 258.699 178.552 259.954 178.001C261.208 177.449 262.243 176.683 263.059 175.672C263.875 174.661 264.533 173.496 264.941 172.148C265.349 170.8 265.569 169.298 265.569 167.674C265.569 166.173 265.38 164.732 265.004 163.384C264.628 162.036 264.063 160.841 263.247 159.829C262.432 158.818 261.459 158.022 260.236 157.409C259.012 156.796 257.538 156.52 255.813 156.52H255.844Z" fill="white"/>
<path d="M275.376 177.57V189H273.023V162.157H275.376V165.681H275.439C276.129 164.394 277.07 163.413 278.231 162.739C279.391 162.065 280.709 161.728 282.183 161.728C283.375 161.728 284.473 161.942 285.414 162.371C286.355 162.8 287.171 163.383 287.83 164.179C288.488 164.976 288.99 165.895 289.335 167.029C289.68 168.163 289.869 169.389 289.869 170.767C289.869 172.3 289.68 173.679 289.273 174.935C288.865 176.191 288.332 177.264 287.579 178.152C286.826 179.041 285.948 179.746 284.912 180.236C283.877 180.726 282.685 180.972 281.368 180.972C278.733 180.972 276.756 179.838 275.439 177.57H275.376ZM275.376 172.882C275.376 173.709 275.533 174.506 275.815 175.241C276.098 175.977 276.505 176.62 277.007 177.172C277.509 177.723 278.137 178.183 278.858 178.49C279.58 178.796 280.395 178.98 281.274 178.98C282.215 178.98 283.062 178.796 283.814 178.398C284.567 177.999 285.226 177.448 285.759 176.743C286.293 176.038 286.7 175.149 286.983 174.138C287.265 173.127 287.422 171.993 287.422 170.737C287.422 169.664 287.296 168.684 287.014 167.826C286.732 166.968 286.355 166.232 285.853 165.619C285.352 165.007 284.755 164.547 284.065 164.21C283.375 163.873 282.56 163.72 281.713 163.72C280.74 163.72 279.862 163.903 279.078 164.241C278.293 164.578 277.635 165.068 277.07 165.681C276.505 166.294 276.098 166.998 275.815 167.826C275.533 168.653 275.376 169.511 275.376 170.43V172.882Z" fill="white"/>
<path d="M295.756 171.749C295.756 172.883 295.912 173.894 296.226 174.783C296.54 175.672 296.948 176.438 297.481 177.051C298.014 177.664 298.704 178.154 299.488 178.491C300.273 178.828 301.182 178.981 302.155 178.981C304.288 178.981 306.264 178.246 308.178 176.806V179.073C306.39 180.329 304.194 180.973 301.622 180.973C300.367 180.973 299.206 180.758 298.171 180.329C297.136 179.9 296.257 179.288 295.536 178.46C294.814 177.633 294.25 176.622 293.873 175.427C293.497 174.232 293.277 172.853 293.277 171.32C293.277 169.941 293.497 168.654 293.936 167.49C294.375 166.326 294.971 165.314 295.724 164.456C296.477 163.598 297.387 162.924 298.422 162.434C299.457 161.944 300.618 161.698 301.841 161.698C303.065 161.698 304.131 161.913 305.072 162.311C306.013 162.71 306.797 163.323 307.425 164.089C308.052 164.855 308.523 165.774 308.868 166.877C309.213 167.98 309.37 169.206 309.37 170.585V171.749H295.756ZM306.923 169.727C306.892 167.827 306.421 166.326 305.511 165.284C304.602 164.242 303.378 163.69 301.778 163.69C300.994 163.69 300.241 163.813 299.551 164.089C298.861 164.364 298.265 164.763 297.763 165.284C297.261 165.805 296.822 166.448 296.477 167.184C296.132 167.919 295.912 168.777 295.756 169.696H306.86L306.923 169.727Z" fill="white"/>
<path d="M326.673 180.513V169.911C326.673 165.743 325.136 163.69 322.031 163.69C321.215 163.69 320.462 163.844 319.741 164.181C319.019 164.518 318.423 164.947 317.921 165.498C317.419 166.05 317.012 166.724 316.729 167.49C316.447 168.256 316.29 169.083 316.29 170.003V180.513H313.938V162.127H316.29V165.314H316.353C317.765 162.894 319.866 161.698 322.658 161.698C324.728 161.698 326.297 162.342 327.363 163.66C328.43 164.977 328.995 166.847 328.995 169.329V180.544H326.642L326.673 180.513Z" fill="white"/>
<path d="M347.822 180.522H345.375V154.782H347.822V180.522Z" fill="white"/>
<path d="M366.978 180.513V169.911C366.978 165.743 365.441 163.69 362.335 163.69C361.52 163.69 360.767 163.844 360.045 164.181C359.324 164.518 358.728 164.947 358.226 165.498C357.724 166.05 357.316 166.724 357.034 167.49C356.752 168.256 356.595 169.083 356.595 170.003V180.513H354.242V162.127H356.595V165.314H356.658C358.069 162.894 360.171 161.698 362.963 161.698C365.033 161.698 366.602 162.342 367.668 163.66C368.735 164.977 369.299 166.847 369.299 169.329V180.544H366.947L366.978 180.513Z" fill="white"/>
<path d="M387.72 180.513V169.911C387.72 165.743 386.183 163.69 383.078 163.69C382.262 163.69 381.509 163.844 380.788 164.181C380.066 164.518 379.47 164.947 378.968 165.498C378.466 166.05 378.059 166.724 377.776 167.49C377.494 168.256 377.337 169.083 377.337 170.003V180.513H374.984V162.127H377.337V165.314H377.4C378.811 162.894 380.913 161.698 383.705 161.698C385.775 161.698 387.344 162.342 388.41 163.66C389.477 164.977 390.042 166.847 390.042 169.329V180.544H387.689L387.72 180.513Z" fill="white"/>
<path d="M403.433 180.942C402.021 180.942 400.798 180.728 399.668 180.268C398.539 179.809 397.598 179.165 396.814 178.338C396.03 177.51 395.434 176.499 395.026 175.335C394.618 174.17 394.398 172.883 394.398 171.474C394.398 169.941 394.618 168.563 395.057 167.367C395.496 166.172 396.124 165.131 396.939 164.303C397.755 163.476 398.727 162.802 399.888 162.373C401.049 161.944 402.335 161.698 403.746 161.698C405.158 161.698 406.319 161.913 407.417 162.342C408.515 162.771 409.424 163.415 410.177 164.242C410.93 165.069 411.526 166.08 411.934 167.245C412.342 168.409 412.53 169.788 412.53 171.29C412.53 172.791 412.31 174.048 411.902 175.212C411.495 176.377 410.867 177.418 410.083 178.246C409.299 179.073 408.358 179.747 407.228 180.207C406.099 180.667 404.813 180.912 403.401 180.912L403.433 180.942ZM403.621 163.69C402.586 163.69 401.676 163.874 400.829 164.211C399.982 164.548 399.292 165.069 398.696 165.743C398.1 166.418 397.661 167.214 397.316 168.195C396.971 169.175 396.845 170.248 396.845 171.474C396.845 172.638 397.002 173.649 397.316 174.569C397.629 175.488 398.1 176.285 398.665 176.928C399.229 177.572 399.951 178.093 400.798 178.46C401.645 178.828 402.554 178.981 403.59 178.981C404.625 178.981 405.566 178.797 406.381 178.46C407.197 178.123 407.887 177.633 408.452 176.959C409.016 176.285 409.456 175.519 409.738 174.569C410.02 173.619 410.177 172.546 410.177 171.351C410.177 168.869 409.612 166.969 408.483 165.682C407.354 164.395 405.754 163.721 403.652 163.721L403.621 163.69Z" fill="white"/>
<path d="M424.008 180.519H421.781L414.566 162.134H417.17L422.377 176.137C422.691 176.995 422.911 177.731 422.973 178.374H423.036C423.193 177.516 423.381 176.781 423.601 176.199L428.996 162.134H431.506L424.008 180.519Z" fill="white"/>
<path d="M445.015 180.512V177.233H444.952C444.324 178.398 443.509 179.317 442.442 179.96C441.376 180.604 440.184 180.941 438.835 180.941C437.925 180.941 437.11 180.818 436.388 180.573C435.667 180.328 435.039 179.96 434.537 179.501C434.035 179.041 433.628 178.49 433.345 177.846C433.063 177.203 432.938 176.498 432.938 175.701C432.938 174.046 433.471 172.698 434.506 171.717C435.541 170.737 437.141 170.093 439.274 169.787L444.983 168.99C444.983 165.466 443.572 163.689 440.78 163.689C438.584 163.689 436.545 164.486 434.663 166.048V163.536C435.039 163.26 435.51 163.015 435.98 162.8C436.451 162.586 437.015 162.402 437.549 162.218C438.082 162.034 438.678 161.942 439.243 161.85C439.807 161.758 440.403 161.728 440.937 161.728C443.038 161.728 444.607 162.31 445.673 163.444C446.74 164.578 447.273 166.294 447.273 168.592V180.543H444.921L445.015 180.512ZM440.152 171.595C439.305 171.717 438.584 171.871 437.988 172.054C437.392 172.238 436.89 172.484 436.514 172.79C436.137 173.096 435.823 173.464 435.635 173.924C435.447 174.383 435.353 174.935 435.353 175.578C435.353 176.069 435.447 176.528 435.604 176.957C435.761 177.386 436.043 177.723 436.388 178.03C436.733 178.336 437.141 178.581 437.612 178.735C438.082 178.888 438.647 178.98 439.243 178.98C440.09 178.98 440.843 178.827 441.533 178.52C442.223 178.214 442.85 177.785 443.352 177.233C443.854 176.682 444.262 176.038 444.544 175.272C444.826 174.506 444.983 173.679 444.983 172.79V170.982L440.121 171.656L440.152 171.595Z" fill="white"/>
<path d="M461.106 180.306C460.291 180.704 459.412 180.888 458.471 180.888C455.428 180.888 453.923 179.172 453.923 175.74V164.126H450.629V162.104H453.923V157.477L456.275 156.711V162.104H461.138V164.126H456.275V175.372C456.275 176.629 456.495 177.517 456.903 178.069C457.311 178.62 458.032 178.896 459.005 178.896C459.726 178.896 460.447 178.682 461.106 178.253V180.275V180.306Z" fill="white"/>
<path d="M466.147 157.472C465.708 157.472 465.3 157.319 464.955 157.013C464.61 156.706 464.453 156.308 464.453 155.817C464.453 155.327 464.61 154.959 464.955 154.653C465.3 154.347 465.677 154.193 466.147 154.193C466.367 154.193 466.586 154.224 466.806 154.316C467.025 154.408 467.182 154.5 467.339 154.653C467.496 154.806 467.621 154.959 467.716 155.174C467.81 155.388 467.841 155.603 467.841 155.817C467.841 156.032 467.81 156.246 467.716 156.461C467.621 156.675 467.496 156.829 467.339 156.982C467.182 157.135 466.994 157.258 466.806 157.319C466.618 157.38 466.367 157.442 466.147 157.442V157.472ZM464.986 180.516V162.13H467.339V180.516H464.986Z" fill="white"/>
<path d="M481.105 180.942C479.693 180.942 478.47 180.728 477.34 180.268C476.211 179.809 475.27 179.165 474.486 178.338C473.701 177.51 473.105 176.499 472.698 175.335C472.29 174.17 472.07 172.883 472.07 171.474C472.07 169.941 472.29 168.563 472.729 167.367C473.168 166.172 473.796 165.131 474.611 164.303C475.427 163.476 476.399 162.802 477.56 162.373C478.721 161.944 480.007 161.698 481.418 161.698C482.83 161.698 483.991 161.913 485.088 162.342C486.186 162.771 487.096 163.415 487.849 164.242C488.602 165.069 489.198 166.08 489.606 167.245C490.013 168.409 490.202 169.788 490.202 171.29C490.202 172.791 489.982 174.048 489.574 175.212C489.166 176.377 488.539 177.418 487.755 178.246C486.971 179.073 486.03 179.747 484.9 180.207C483.771 180.667 482.485 180.912 481.073 180.912L481.105 180.942ZM481.293 163.69C480.258 163.69 479.348 163.874 478.501 164.211C477.654 164.548 476.964 165.069 476.368 165.743C475.772 166.418 475.333 167.214 474.988 168.195C474.643 169.175 474.517 170.248 474.517 171.474C474.517 172.638 474.674 173.649 474.988 174.569C475.301 175.488 475.772 176.285 476.337 176.928C476.901 177.572 477.623 178.093 478.47 178.46C479.317 178.828 480.226 178.981 481.261 178.981C482.297 178.981 483.238 178.797 484.053 178.46C484.869 178.123 485.559 177.633 486.124 176.959C486.688 176.285 487.127 175.519 487.41 174.569C487.692 173.619 487.849 172.546 487.849 171.351C487.849 168.869 487.284 166.969 486.155 165.682C485.026 164.395 483.426 163.721 481.324 163.721L481.293 163.69Z" fill="white"/>
<path d="M507.677 180.513V169.911C507.677 165.743 506.14 163.69 503.035 163.69C502.219 163.69 501.466 163.844 500.745 164.181C500.023 164.518 499.427 164.947 498.925 165.498C498.423 166.05 498.016 166.724 497.733 167.49C497.451 168.256 497.294 169.083 497.294 170.003V180.513H494.941V162.127H497.294V165.314H497.357C498.768 162.894 500.87 161.698 503.662 161.698C505.732 161.698 507.301 162.342 508.367 163.66C509.434 164.977 509.999 166.847 509.999 169.329V180.544H507.646L507.677 180.513Z" fill="white"/>
<path d="M68.3372 124.27H54V61.7593H68.3372V124.27Z" fill="white"/>
<path d="M140.122 124.27H125.628L99.3695 84.9967C97.8322 82.6884 96.7656 80.9648 96.1695 79.7952H95.9813C96.2322 82.0113 96.3264 85.3661 96.3264 89.9212V124.27H82.7734V61.7593H98.2401L123.526 99.801C124.687 101.525 125.754 103.217 126.726 104.91H126.915C126.664 103.464 126.569 100.601 126.569 96.3231V61.7593H140.122V124.27Z" fill="white"/>
<path d="M211.99 124.27H197.495L171.237 84.9967C169.699 82.6884 168.633 80.9648 168.037 79.7952H167.848C168.099 82.0113 168.194 85.3661 168.194 89.9212V124.27H154.641V61.7593H170.107L195.393 99.801C196.554 101.525 197.621 103.217 198.593 104.91H198.782C198.531 103.464 198.437 100.601 198.437 96.3231V61.7593H211.99V124.27Z" fill="white"/>
<path d="M253.5 125.347C244.37 125.347 236.935 122.423 231.194 116.606C225.453 110.789 222.566 103.186 222.566 93.8299C222.566 83.9501 225.484 75.9478 231.319 69.8537C237.155 63.7597 244.872 60.7126 254.504 60.7126C263.602 60.7126 270.943 63.6366 276.558 69.4844C282.174 75.3322 284.966 83.0268 284.966 92.568C284.966 102.109 282.049 110.296 276.245 116.329C270.441 122.33 262.849 125.347 253.468 125.347H253.5ZM254.127 72.8392C249.108 72.8392 245.092 74.6859 242.143 78.4101C239.194 82.1034 237.688 87.0279 237.688 93.122C237.688 99.216 239.162 104.202 242.143 107.803C245.123 111.404 248.982 113.22 253.782 113.22C258.582 113.22 262.66 111.466 265.547 107.957C268.464 104.448 269.907 99.5854 269.907 93.3682C269.907 87.151 268.496 81.8572 265.672 78.2562C262.849 74.6551 259.021 72.8392 254.127 72.8392Z" fill="white"/>
<path d="M292.646 121.869V107.926C295.218 110.05 298.01 111.651 301.053 112.697C304.096 113.744 307.108 114.298 310.214 114.298C312.034 114.298 313.602 114.144 314.951 113.805C316.3 113.467 317.43 113.036 318.34 112.482C319.249 111.928 319.908 111.25 320.347 110.481C320.787 109.712 321.006 108.881 321.006 107.988C321.006 106.757 320.661 105.68 319.94 104.726C319.218 103.771 318.245 102.879 317.022 102.079C315.798 101.278 314.324 100.478 312.661 99.7395C310.998 99.0008 309.147 98.2006 307.202 97.4311C302.214 95.3998 298.512 92.9068 296.065 89.9828C293.618 87.0589 292.395 83.4887 292.395 79.3336C292.395 76.0711 293.053 73.2703 294.402 70.9312C295.751 68.5921 297.54 66.653 299.861 65.1449C302.151 63.6368 304.818 62.5288 307.83 61.8209C310.842 61.113 314.042 60.7437 317.43 60.7437C320.818 60.7437 323.673 60.9283 326.245 61.3284C328.818 61.7286 331.171 62.3133 333.336 63.1443V76.1635C332.269 75.4248 331.108 74.8092 329.853 74.2552C328.598 73.7012 327.312 73.2396 325.963 72.8702C324.614 72.5009 323.296 72.2239 321.979 72.07C320.661 71.9161 319.406 71.8238 318.214 71.8238C316.583 71.8238 315.108 71.9777 313.759 72.2854C312.442 72.5932 311.312 73.0241 310.371 73.5781C309.461 74.1321 308.74 74.7785 308.238 75.5479C307.736 76.3174 307.485 77.1792 307.485 78.1333C307.485 79.1797 307.767 80.1031 308.332 80.9341C308.896 81.7651 309.681 82.5345 310.716 83.2732C311.751 84.0119 313.006 84.7506 314.481 85.4585C315.955 86.1664 317.618 86.905 319.5 87.6437C322.042 88.6902 324.332 89.7982 326.371 90.9677C328.41 92.1373 330.136 93.4608 331.579 94.9689C333.022 96.4462 334.151 98.139 334.904 100.047C335.657 101.956 336.065 104.172 336.065 106.695C336.065 110.173 335.406 113.097 334.057 115.467C332.708 117.837 330.889 119.745 328.567 121.223C326.245 122.7 323.579 123.746 320.504 124.393C317.43 125.039 314.198 125.347 310.81 125.347C307.422 125.347 304.002 125.07 300.834 124.485C297.696 123.9 294.936 123.039 292.646 121.869Z" fill="white"/>
<path d="M391.315 73.238H373.15V124.268H358.75V73.238H340.68V61.7886H391.315V73.238Z" fill="white"/>
<path d="M449.046 124.27H433.423L428.905 110.358H406.254L401.768 124.27H386.207L409.391 61.7593H426.395L449.046 124.27ZM425.579 99.5548L418.74 78.5641C418.238 76.9944 417.893 75.117 417.674 72.9317H417.329C417.172 74.7476 416.795 76.5635 416.23 78.3794L409.297 99.5548H425.611H425.579Z" fill="white"/>
<path d="M508.087 120.084C501.875 123.592 494.126 125.347 484.903 125.347C474.644 125.347 466.581 122.577 460.683 117.006C454.785 111.435 451.805 103.771 451.805 94.0145C451.805 84.2579 455.036 76.194 461.499 70.0076C467.962 63.8212 476.558 60.7126 487.256 60.7126C494.001 60.7126 499.961 61.636 505.107 63.4519V76.6557C500.181 73.8549 494.189 72.4699 487.067 72.4699C481.107 72.4699 476.275 74.3781 472.511 78.1638C468.777 81.9495 466.895 87.0279 466.895 93.3682C466.895 99.7085 468.589 104.756 471.946 108.265C475.303 111.774 479.852 113.528 485.562 113.528C488.981 113.528 491.711 113.035 493.75 112.081V99.8932H481.012V88.6592H508.118V120.084H508.087Z" fill="white"/>
<path d="M558.692 124.27H520.48V61.7593H557.218V73.2087H534.818V87.1204H555.649V98.5391H534.818V112.82H558.661V124.239L558.692 124.27Z" fill="white"/>
<path d="M579.629 125.353C577.593 125.353 575.915 124.645 574.567 123.26C573.219 121.875 572.531 120.152 572.531 118.12C572.531 116.089 573.219 114.304 574.622 112.981C575.998 111.657 577.731 110.98 579.821 110.98C581.912 110.98 583.645 111.657 584.993 113.011C586.341 114.366 587.002 116.058 587.002 118.12C587.002 120.183 586.314 121.968 584.966 123.322C583.59 124.676 581.83 125.353 579.656 125.353H579.629Z" fill="#5DC591"/>
<path d="M9 138.282V9H617V138.282" stroke="white" stroke-width="18" stroke-miterlimit="10"/>
</svg>
